<svg width="24" height="24" viewBox="0 0 24 24" fill="none" xmlns="http://www.w3.org/2000/svg">
    <path
        d="M10 2V4C11.5913 4 13.1174 4.63214 14.2426 5.75736C15.3679 6.88258 16 8.4087 16 10H18C18 7.87827 17.1571 5.84344 15.6569 4.34315C14.1566 2.84285 12.1217 2 10 2"
        fill="#34A853" />
    <path d="M10 4V2C7.87827 2 5.84344 2.84285 4.34315 4.34315C2.84285 5.84344 2 7.87827 2 10H4C4 6.7 6.7 4 10 4Z"
        fill="#EA4335" />
    <path d="M4 10H2C2 12.1217 2.84285 14.1566 4.34315 15.6569C5.84344 17.1571 7.87827 18 10 18V16C6.7 16 4 13.31 4 10Z"
        fill="#FBBC04" />
    <path
        d="M22 20.59L16.31 14.9C17.4042 13.501 17.9991 11.7761 18 10H16C16 11.5913 15.3679 13.1174 14.2426 14.2426C13.1174 15.3679 11.5913 16 10 16V18C11.85 18 13.52 17.36 14.88 16.32L20.57 22.01L22 20.59Z"
        fill="#4285F4" />
</svg>