<?xml version="1.0" standalone="no"?>
<!DOCTYPE svg PUBLIC "-//W3C//DTD SVG 20010904//EN"
 "http://www.w3.org/TR/2001/REC-SVG-20010904/DTD/svg10.dtd">
<svg version="1.0" xmlns="http://www.w3.org/2000/svg"
 width="225.000000pt" height="225.000000pt" viewBox="0 0 225.000000 225.000000"
 preserveAspectRatio="xMidYMid meet">

<g transform="translate(0.000000,225.000000) scale(0.100000,-0.100000)"
fill="#000000" stroke="none">
<path d="M967 2239 c-242 -35 -464 -147 -637 -319 -291 -292 -399 -712 -284
-1108 158 -545 700 -888 1260 -797 99 16 232 58 305 96 l47 24 -175 235 c-96
129 -276 385 -400 568 -124 183 -229 335 -234 338 -5 3 -9 -137 -9 -323 0
-243 -3 -332 -12 -341 -7 -7 -33 -12 -60 -12 -37 0 -50 4 -58 19 -6 13 -10
175 -10 459 0 367 2 441 14 451 8 7 37 11 68 9 l53 -3 68 -100 c37 -55 237
-356 444 -670 207 -314 379 -574 383 -578 10 -12 126 77 199 152 329 339 412
839 211 1268 -128 274 -381 496 -668 587 -165 52 -347 68 -505 45z m563 -689
c7 -12 9 -153 8 -412 l-3 -393 -73 110 -73 110 3 290 c2 160 7 296 11 303 5 7
30 12 62 12 44 0 56 -4 65 -20z"/>
</g>
</svg>
